<?xml version="1.0" encoding="UTF-8"?>
<svg id="Calque_2" data-name="Calque 2" xmlns="http://www.w3.org/2000/svg" viewBox="0 0 394.89 157.57">
  <defs>
    <style>
      .cls-1, .cls-2 {
        stroke-width: 0px;
      }

      .cls-2 {
        fill: #1d1d1b;
      }
    </style>
  </defs>
  <g id="Calque_1-2" data-name="Calque 1">
    <path class="cls-1" d="m70.52,101.72l17.24-42.11v-14.4h-.97c-.89,0-1.61-1.04-1.61-2.33h0c0-1.28.72-2.33,1.61-2.33h18.36c.89,0,1.61,1.04,1.61,2.33h0c0,1.28-.72,2.33-1.61,2.33h-.97v14.4l17.24,42.11c2.12,5.17.31,11.49-3.25,13.41h24.94L95.98,0l-47.15,115.13h24.94c-3.56-1.93-5.37-8.24-3.25-13.41Z"/>
    <polygon class="cls-1" points="36.52 66.29 36.52 72.3 20.76 72.3 20.76 66.29 13.99 66.29 13.99 82.33 43.29 82.33 43.29 66.29 36.52 66.29"/>
    <path class="cls-1" d="m147.03,81.97H0v10.43h146.76c-.25-1.48-.39-2.99-.39-4.53,0-2.03.23-4,.66-5.9Z"/>
    <path class="cls-1" d="m174.22,92.4h27.47c.25-1.48.39-2.99.39-4.53,0-15.06-12.47-27.26-27.86-27.26-13.32,0-24.44,9.15-27.2,21.37-.43,1.9-.66,3.87-.66,5.9,0,1.55.14,3.06.39,4.53,2.21,12.9,13.66,22.73,27.47,22.73,12.05,0,22.32-7.49,26.2-17.98h-15.57c0,.43,0,.87,0,1.34,0,5.87-4.76,10.63-10.63,10.63s-10.57-4.76-10.63-10.63c-.03-3.07-.15-4.96-.12-6.09h10.74Zm-10.69-15.32c0-5.87,4.76-10.63,10.63-10.63s10.57,4.76,10.63,10.63c.02,2.17.09,3.74.11,4.88h-21.35c-.02-1.24-.01-2.83-.01-4.88Z"/>
    <g>
      <path class="cls-2" d="m146.24,153.5v3.82h-12.04v-16h12.04v3.69h-7.22v2.32h5.84v3.55h-5.84v2.61h7.22Z"/>
      <path class="cls-2" d="m146.53,152.69l4.56-.82c.38,1.29,1.37,1.93,2.95,1.93,1.23,0,1.85-.33,1.85-.98,0-.34-.14-.61-.43-.8s-.79-.36-1.53-.51c-2.81-.54-4.61-1.24-5.4-2.11-.8-.87-1.19-1.89-1.19-3.06,0-1.51.57-2.76,1.72-3.76,1.14-1,2.79-1.5,4.94-1.5,3.26,0,5.41,1.31,6.46,3.93l-4.07,1.23c-.42-1.07-1.28-1.61-2.57-1.61-1.07,0-1.61.33-1.61,1,0,.3.12.53.36.69s.71.32,1.41.47c1.91.41,3.27.76,4.08,1.07.8.31,1.48.84,2.02,1.6.54.75.81,1.64.81,2.67,0,1.62-.66,2.93-1.97,3.93s-3.04,1.51-5.17,1.51c-3.9,0-6.3-1.62-7.22-4.88Z"/>
      <path class="cls-2" d="m171.56,151.22l4.49.27c-.21,1.96-.94,3.46-2.17,4.51s-2.76,1.57-4.56,1.57c-2.17,0-3.93-.72-5.26-2.16s-2-3.42-2-5.95.63-4.53,1.9-6.07,3.03-2.31,5.3-2.31c2.12,0,3.74.59,4.88,1.76s1.78,2.73,1.93,4.66l-4.58.25c0-1.07-.21-1.84-.62-2.32s-.89-.71-1.45-.71c-1.55,0-2.32,1.55-2.32,4.66,0,1.74.2,2.93.6,3.55s.97.94,1.69.94c1.3,0,2.02-.88,2.18-2.65Z"/>
      <path class="cls-2" d="m186.39,157.32l-.9-3.15h-4.29l-.96,3.15h-3.99l4.94-16h5.19l5.02,16h-5.01Zm-4.35-6.64h2.59l-1.29-4.64-1.29,4.64Z"/>
      <path class="cls-2" d="m197.86,151.51v5.81h-4.98v-16h6.83c1.7,0,3,.2,3.88.59s1.59.99,2.11,1.79.78,1.71.78,2.71c0,1.52-.53,2.75-1.59,3.69s-2.48,1.41-4.25,1.41h-2.78Zm-.07-3.43h1.64c1.45,0,2.17-.53,2.17-1.59,0-1-.67-1.5-2-1.5h-1.8v3.09Z"/>
      <path class="cls-2" d="m220.35,153.5v3.82h-12.04v-16h12.04v3.69h-7.22v2.32h5.84v3.55h-5.84v2.61h7.22Z"/>
      <path class="cls-2" d="m241.86,141.33v16h-4.91v-6.22h-3.75v6.22h-4.91v-16h4.91v5.88h3.75v-5.88h4.91Z"/>
      <path class="cls-2" d="m251.55,157.57c-2.25,0-4.08-.75-5.5-2.24s-2.13-3.49-2.13-5.99.68-4.37,2.03-5.92,3.24-2.34,5.64-2.34c2.23,0,4.04.73,5.44,2.2s2.1,3.43,2.1,5.88-.71,4.57-2.12,6.11-3.24,2.3-5.47,2.3Zm-.02-3.63c.83,0,1.42-.36,1.79-1.08s.54-2.04.54-3.97c0-2.78-.75-4.17-2.24-4.17-1.61,0-2.41,1.59-2.41,4.76,0,2.98.77,4.46,2.32,4.46Z"/>
      <path class="cls-2" d="m267.79,145.16v12.16h-4.65v-12.16h-3.32v-3.83h11.29v3.83h-3.32Z"/>
      <path class="cls-2" d="m284.54,153.5v3.82h-12.04v-16h12.04v3.69h-7.22v2.32h5.84v3.55h-5.84v2.61h7.22Z"/>
      <path class="cls-2" d="m297.7,153.4v3.93h-11.21v-16h4.91v12.07h6.3Z"/>
    </g>
    <path class="cls-1" d="m329.89,92.71h27.47c.25-1.48.39-2.99.39-4.53,0-15.06-12.47-27.26-27.86-27.26-13.32,0-24.44,9.15-27.2,21.37-.43,1.9-.66,3.87-.66,5.9,0,1.55.14,3.06.39,4.53,2.21,12.9,13.66,22.73,27.47,22.73,12.05,0,22.32-7.49,26.2-17.98h-15.57c0,.43,0,.87,0,1.34,0,5.87-4.76,10.63-10.63,10.63s-10.57-4.76-10.63-10.63c-.03-3.07-.15-4.96-.12-6.09h10.74Zm-10.69-15.32c0-5.87,4.76-10.63,10.63-10.63s10.57,4.76,10.63,10.63c.02,2.17.09,3.74.11,4.88h-21.35c-.02-1.24-.01-2.83-.01-4.88Z"/>
    <path class="cls-1" d="m238.29,66.46v-5.85h-9.64v-12.17h-16.51v12.17h-9.64v5.85h9.64v32.65c0,8.85,7.17,16.03,16.03,16.03h.66c3.72,0,6.98-1.95,8.82-4.89-.84.42-1.78.67-2.79.67-3.43,0-6.21-2.78-6.21-6.21v-38.24h9.64Z"/>
    <path class="cls-1" d="m279.33,60.61c-7.34,0-13.48,5.09-15.13,11.92v-24.1h-16.51v67.31h16.51v-26.36h.02c.17-4.06,3.27-7.3,7.08-7.3s6.91,3.24,7.08,7.3h.02v26.36h16.51v-39.56c0-8.6-6.97-15.57-15.57-15.57Z"/>
    <path class="cls-1" d="m381.38,72.53v-11.92h-16.51v55.14h16.51v-26.36h.02c.17-4.06,3.27-7.3,7.08-7.3,2.84,0,5.28,1.8,6.42,4.39v-25.79c-6.62.68-11.99,5.51-13.51,11.84Z"/>
  </g>
</svg>